<svg xmlns="http://www.w3.org/2000/svg" version="1.1" xmlns:xlink="http://www.w3.org/1999/xlink" width="512" height="512" x="0" y="0" viewBox="0 0 512 512" style="enable-background:new 0 0 512 512" xml:space="preserve" class=""><g transform="matrix(0.86,0,0,0.86,35.84,35.84006942749025)"><path d="M165.641 55.419c-50.224 0-91.089 43.305-91.089 96.539 0 53.244 40.865 96.549 91.089 96.549s91.079-43.305 91.079-96.549c0-53.235-40.855-96.539-91.079-96.539zm0 163.09c-33.686 0-61.093-29.857-61.093-66.552 0-36.696 27.407-66.542 61.093-66.542 33.676 0 61.083 29.846 61.083 66.542-.001 36.696-27.407 66.552-61.083 66.552zM371.076 69.167c-43.145.36-77.951 37.786-77.571 83.44.18 21.917 8.369 42.515 23.037 57.983 14.798 15.598 34.406 24.167 55.273 24.167h.63c43.145-.36 77.941-37.786 77.571-83.44-.379-45.654-35.815-82.49-78.94-82.15zm1.12 135.594c-12.698.09-24.727-5.159-33.886-14.818-9.429-9.939-14.688-23.287-14.808-37.586-.24-29.107 21.218-52.974 47.824-53.194h.37c26.437 0 48.084 23.417 48.324 52.394.241 29.117-21.217 52.984-47.824 53.204zM512 389.829c0-77.331-62.913-140.244-140.244-140.244-41.935 0-79.641 18.508-105.358 47.794-27.937-21.477-62.883-34.256-100.758-34.256C74.301 263.124 0 337.435 0 428.765v27.817h331.271v-27.817c0-4.469-.18-8.899-.53-13.278H512v-25.658zM30.016 426.585c1.16-73.791 61.553-133.464 135.624-133.464 31.446 0 60.423 10.759 83.46 28.777a137.823 137.823 0 0 1 22.387 22.127 135.584 135.584 0 0 1 22.717 41.465 134.355 134.355 0 0 1 6.429 29.996c.36 3.66.57 7.359.63 11.099H30.016zm295.516-41.095c-6.919-25.557-19.828-48.684-37.096-67.772 20.228-23.347 50.084-38.136 83.32-38.136 59.333 0 107.877 47.125 110.167 105.908H325.532z" fill="#1d0f0f" opacity="1" data-original="#000000" class=""></path></g></svg>