<svg xmlns="http://www.w3.org/2000/svg" width="2000" height="2000" viewBox="0 0 2000 2000"
    version="1.1">
    <path
        d="M 947.562 68.110 C 856.468 73.069, 761.770 92.905, 675 125.202 C 513.413 185.347, 372.733 288.088, 265.866 424 C 158.077 561.084, 90.880 726.498, 72.090 901 C 68.153 937.567, 67.506 951.572, 67.517 1000 C 67.528 1048.393, 68.201 1062.933, 72.096 1099 C 96.809 1327.798, 203.416 1537.226, 374 1692.083 C 514.892 1819.986, 694.585 1902.367, 884.055 1925.921 C 905.859 1928.631, 942.432 1932, 950.054 1932 C 952.558 1932, 954.258 1930.176, 964.269 1916.750 C 1047.829 1804.684, 1126.593 1667.733, 1198.540 1509.405 C 1219.301 1463.719, 1231.119 1435.676, 1230.562 1433.423 C 1229.802 1430.349, 1203.953 1391.701, 1191.487 1375 C 1171.891 1348.748, 1161.863 1336.690, 1137.846 1310.500 C 1096.640 1265.569, 1054.591 1229.040, 1006.957 1196.795 C 989.666 1185.091, 976.070 1176.552, 975.633 1177.122 C 973.987 1179.276, 952.949 1202.489, 934.055 1223 C 893.742 1266.764, 852.422 1307.057, 811.500 1342.511 C 671.482 1463.819, 509.866 1549.559, 381.500 1570.633 C 366.542 1573.089, 337.125 1573.096, 324.688 1570.647 C 302.943 1566.366, 287.722 1558.082, 273.474 1542.776 C 266.091 1534.846, 258.442 1522.894, 254.430 1513.021 C 245.409 1490.820, 239.080 1446.353, 240.336 1414 C 244.245 1313.285, 298.526 1221.556, 394.904 1152.795 C 423.249 1132.573, 467.544 1108.593, 501.500 1095.087 C 631.467 1043.394, 783.212 1036.197, 920.906 1075.197 L 939.313 1080.410 941.906 1076.996 C 962.353 1050.084, 978.035 1031.116, 998.053 1009.088 L 1008.424 997.676 884.712 750.987 C 816.670 615.308, 761 503.521, 761 502.572 C 761 500.450, 829.943 353.795, 831.432 352.751 C 832.019 352.338, 838.975 352.113, 846.890 352.251 L 861.279 352.500 998.390 614.748 C 1073.800 758.985, 1135.733 876.997, 1136.018 876.998 C 1136.303 876.999, 1139.058 874.863, 1142.141 872.250 C 1176.766 842.907, 1185.809 835.964, 1210.500 819.758 C 1247.918 795.200, 1307.053 764.267, 1348.962 747.330 C 1365.606 740.604, 1395.423 730.429, 1411.500 725.990 C 1418.100 724.167, 1423.913 722.314, 1424.417 721.871 C 1425.952 720.524, 1434.774 640.448, 1437.954 599 C 1443.488 526.869, 1445.503 437.501, 1442.982 376 C 1439.957 302.191, 1434.582 252.868, 1420.790 172.344 L 1419.735 166.187 1405.618 159.418 C 1293.211 105.521, 1174.372 74.974, 1050 68.009 C 1029.654 66.870, 969.252 66.929, 947.562 68.110 M 1386 801.898 C 1367.744 807.840, 1331.920 824.391, 1310 837.010 C 1268.346 860.991, 1230.539 890.310, 1184.658 934.212 L 1171.816 946.500 1242.411 1081.500 C 1281.239 1155.750, 1313.368 1216.621, 1313.809 1216.769 C 1314.712 1217.071, 1330.870 1167.948, 1339.883 1137.500 C 1368.615 1040.432, 1387.467 958.558, 1405.929 850.672 L 1406.755 845.845 1404.128 846.508 C 1395.124 848.782, 1345.375 858.314, 1331.320 860.458 C 1322.069 861.869, 1313.375 863.275, 1312 863.583 C 1310.313 863.960, 1309.825 863.811, 1310.500 863.126 C 1312.622 860.970, 1344.570 849.905, 1392.500 834.725 L 1409.500 829.342 1411.682 815.921 C 1412.882 808.539, 1413.895 801.938, 1413.932 801.250 C 1414.044 799.192, 1392.801 799.684, 1386 801.898 M 1039.102 1101.077 C 1032.347 1109.369, 1026.973 1116.269, 1027.160 1116.410 C 1027.347 1116.550, 1032.900 1119.502, 1039.500 1122.968 C 1049.679 1128.315, 1072.017 1141.611, 1082.457 1148.538 C 1085.031 1150.246, 1083.283 1146.324, 1068.957 1118.250 C 1059.906 1100.513, 1052.249 1086.001, 1051.942 1086 C 1051.635 1086, 1045.858 1092.785, 1039.102 1101.077 M 676.500 1093.150 C 630.432 1094.737, 587.728 1103.634, 546.500 1120.234 C 477.334 1148.082, 421.506 1193.959, 379.459 1257.500 C 363.441 1281.706, 356.480 1296.207, 348.507 1321.977 C 337.071 1358.943, 333.504 1379.011, 334.286 1402 C 334.840 1418.319, 336.258 1424.871, 341.602 1435.815 C 348.009 1448.938, 360.814 1458.759, 376.613 1462.670 C 385.786 1464.940, 408.158 1464.935, 420.500 1462.659 C 514.241 1445.376, 658.981 1351.457, 813 1207.974 C 838.127 1184.567, 889.099 1133.696, 888.251 1132.873 C 885.896 1130.590, 837.456 1114.246, 817.500 1109.003 C 769.227 1096.320, 725.900 1091.448, 676.500 1093.150"
        stroke="none" fill="#ffffff" fill-rule="evenodd" />
    <path
        d="M 951.500 24.107 C 780.024 32.790, 615.084 86.076, 469 179.985 C 389.675 230.979, 314.619 297.399, 250.887 373 C 212.875 418.091, 175.552 472.511, 145.036 527.338 C 127.660 558.558, 103.271 610.502, 90.281 643.959 C 29.980 799.268, 9.861 965.207, 31.594 1128 C 60.988 1348.177, 163.632 1551.198, 322.704 1703.785 C 448.325 1824.286, 599.256 1907.351, 768.373 1949.059 C 880.975 1976.830, 1002.092 1983.856, 1120 1969.458 C 1204.545 1959.134, 1291.906 1936.224, 1371.500 1903.504 C 1415.050 1885.601, 1466.504 1859.675, 1505 1836.237 C 1651.882 1746.807, 1770.174 1624.339, 1853.435 1475.500 C 1864.094 1456.444, 1888.846 1406.167, 1897.249 1386.500 C 1961.708 1235.638, 1987.678 1072.985, 1972.931 912.500 C 1961.583 789.013, 1929.459 675.508, 1874.863 566 C 1849.457 515.039, 1828.222 479.334, 1796.655 434.500 C 1749.448 367.451, 1684.407 297.685, 1619.500 244.475 C 1548.233 186.050, 1466.116 136.520, 1379.274 99.578 C 1305.347 68.130, 1219.150 44.343, 1136.500 32.581 C 1078.846 24.376, 1009.202 21.186, 951.500 24.107 M 969 66.679 C 850.762 70.454, 731.823 97.748, 621 146.537 C 599.808 155.866, 555.114 178.560, 534.500 190.458 C 438.507 245.862, 353.901 317.182, 281.363 403.845 C 275.537 410.805, 262.813 427.086, 253.087 440.024 C 193.461 519.346, 147.708 606.014, 115.898 699.893 C 50.434 893.095, 49.751 1100.752, 113.945 1294 C 143.609 1383.298, 184.997 1465.054, 239.013 1541.051 C 382.036 1742.277, 599.287 1878.726, 843 1920.397 C 991.019 1945.706, 1144.223 1934.649, 1287.500 1888.316 C 1397.351 1852.793, 1497.565 1798.246, 1589.500 1723.936 C 1746.207 1597.273, 1859.900 1417.048, 1907.401 1220 C 1935.623 1102.929, 1941.181 984.667, 1923.944 868 C 1918.718 832.629, 1916.717 821.093, 1912.410 801.500 C 1887.569 688.502, 1842.540 581.630, 1779.478 486 C 1759.769 456.113, 1738.905 428.146, 1714.656 399.109 C 1677.765 354.936, 1630.460 308.725, 1584 271.477 C 1410.080 132.043, 1192.377 59.546, 969 66.679 M 845.285 352.777 L 831.069 353.054 829.171 357.277 C 828.127 359.600, 812.291 393.225, 793.980 432 L 760.686 502.500 884.885 750.245 L 1009.083 997.990 1002.789 1004.745 C 985.988 1022.774, 966.661 1045.574, 952.638 1063.908 C 947.838 1070.182, 942.824 1076.609, 941.495 1078.189 L 939.077 1081.062 925.789 1077.089 C 888.220 1065.860, 845.292 1057.779, 799.500 1053.317 C 773.929 1050.825, 706.071 1050.825, 680.500 1053.317 C 571.705 1063.918, 474.330 1097.662, 398 1151.213 C 367.122 1172.876, 332.720 1204.555, 312.440 1230 C 272.376 1280.266, 249.182 1333.539, 242.504 1390.633 C 237.908 1429.919, 243.514 1485.531, 254.738 1512 C 268.994 1545.620, 293.620 1565.298, 328 1570.540 C 357.436 1575.028, 394.048 1569.102, 434.500 1553.300 C 454.711 1545.405, 495.405 1525.015, 518 1511.462 C 562.979 1484.482, 612.360 1448.661, 665.730 1404.299 C 683.875 1389.217, 727.713 1350.187, 743.500 1335.058 C 800.311 1280.616, 868.913 1209.209, 912.881 1158.750 C 918.033 1152.838, 922.651 1148, 923.144 1148 C 924.463 1148, 940.493 1156.165, 955.434 1164.448 C 1009.110 1194.203, 1060.663 1232.692, 1106.857 1277.500 C 1121.773 1291.968, 1151.949 1324.620, 1166.005 1341.500 C 1215.040 1400.387, 1260.492 1476.254, 1288.519 1546 C 1290.619 1551.225, 1292.823 1556.004, 1293.418 1556.621 C 1294.105 1557.332, 1304.363 1558.171, 1321.500 1558.917 C 1336.350 1559.563, 1353 1560.307, 1358.500 1560.570 C 1371.569 1561.195, 1480.870 1565.916, 1488 1566.164 C 1492.846 1566.332, 1493.494 1566.126, 1493.447 1564.427 C 1493.419 1563.367, 1453.979 1487.125, 1405.804 1395 C 1357.629 1302.875, 1292.913 1179.125, 1261.991 1120 C 1163.842 932.337, 1156 917.264, 1156 916.289 C 1156 915.198, 1184.530 889.324, 1199.500 876.839 C 1223.369 856.932, 1239.934 845.771, 1262.843 834.159 C 1291.403 819.684, 1301.637 815.706, 1327.500 809.029 C 1374.005 797.022, 1424.057 796.120, 1456.232 806.708 C 1469.478 811.068, 1469.731 810.784, 1445.834 818.360 C 1434.100 822.081, 1406.802 830.739, 1385.172 837.602 C 1336.119 853.164, 1305.535 864.087, 1315.500 862.483 C 1347.784 857.287, 1365.906 853.877, 1422 842.444 C 1458.575 834.990, 1489.627 828.656, 1491.005 828.369 C 1493.077 827.938, 1494.581 828.944, 1499.690 834.174 C 1503.089 837.653, 1509.002 844.550, 1512.830 849.500 C 1516.658 854.450, 1522.313 860.480, 1525.395 862.899 C 1528.478 865.319, 1531 867.522, 1531 867.795 C 1531 868.067, 1527.008 875.538, 1522.129 884.395 C 1517.250 893.253, 1511.835 903.425, 1510.095 907 L 1506.932 913.500 1510.015 910 C 1511.712 908.075, 1518.531 898.731, 1525.169 889.235 C 1531.807 879.740, 1537.546 871.780, 1537.922 871.548 C 1538.299 871.315, 1542.407 872.651, 1547.053 874.515 C 1557.180 878.580, 1570.142 880.997, 1581.881 881.009 L 1590.500 881.019 1621.866 980.759 C 1650.971 1073.310, 1662.407 1108.093, 1669.946 1127 C 1672.762 1134.064, 1672.903 1134.238, 1672.374 1130 C 1671.110 1119.876, 1664.876 1082.515, 1662.113 1068.500 C 1658.780 1051.601, 1623.282 876.653, 1622.527 873.404 C 1622.126 871.683, 1623.450 870.388, 1629.917 866.177 C 1639.104 860.193, 1648.446 851.179, 1654.120 842.823 L 1658.134 836.913 1680.317 848.355 C 1692.518 854.648, 1704.300 860.520, 1706.500 861.404 L 1710.500 863.012 1708 860.994 C 1706.625 859.883, 1696.050 852.616, 1684.500 844.843 C 1672.950 837.071, 1663.177 830.431, 1662.782 830.088 C 1662.388 829.745, 1663.164 826.004, 1664.507 821.775 C 1667.735 811.609, 1669.261 798.322, 1668.190 789.702 C 1667.726 785.963, 1667.606 782.754, 1667.923 782.571 C 1668.240 782.387, 1702.066 771.637, 1743.090 758.681 C 1811.187 737.176, 1850.092 724.246, 1854 721.822 C 1858.428 719.076, 1821.367 725.758, 1739 742.556 C 1697.475 751.025, 1662.547 758.183, 1661.382 758.463 C 1659.676 758.873, 1658.524 757.856, 1655.457 753.236 C 1651.475 747.236, 1639.994 735.234, 1634 730.804 L 1630.500 728.217 1645.358 699.050 C 1653.530 683.008, 1660.010 669.677, 1659.758 669.425 C 1659.211 668.878, 1651.520 679.903, 1634.828 705.160 L 1622.495 723.819 1616.498 721.284 C 1609.941 718.511, 1589.231 713, 1585.372 713 C 1583.828 713, 1582.600 712.189, 1581.967 710.750 C 1581.423 709.513, 1567.689 666.200, 1551.447 614.500 C 1514.605 497.229, 1498.351 448.446, 1497.235 451.794 C 1496.717 453.350, 1501.180 482.098, 1505.461 504.769 C 1507.302 514.521, 1517.176 563.604, 1527.404 613.842 C 1537.632 664.080, 1545.999 705.930, 1545.998 706.842 C 1545.996 708.320, 1544.020 708.514, 1527.748 708.631 C 1470.582 709.042, 1404.528 724.314, 1337.232 752.679 C 1320.750 759.626, 1271.825 784.043, 1251.789 795.320 C 1211.894 817.777, 1181.386 838.988, 1151 865.395 C 1143.025 872.326, 1136.265 877.997, 1135.978 877.998 C 1135.691 877.999, 1132.360 872.038, 1128.576 864.750 C 1124.792 857.462, 1117.314 843.175, 1111.958 833 C 1106.603 822.825, 1048.129 711, 982.017 584.500 C 915.905 458, 861.293 354.050, 860.657 353.500 C 859.968 352.905, 853.745 352.612, 845.285 352.777 M 1016.789 1045.309 C 999.944 1063.963, 975.978 1093.561, 977.109 1094.311 C 977.324 1094.454, 984.250 1097.437, 992.500 1100.941 C 1019.716 1112.500, 1050.763 1128.809, 1073.634 1143.560 C 1078.108 1146.445, 1082.779 1149.346, 1084.013 1150.007 C 1085.684 1150.901, 1078.745 1136.354, 1056.879 1093.115 C 1040.720 1061.164, 1027.184 1035.017, 1026.799 1035.011 C 1026.413 1035.005, 1021.908 1039.639, 1016.789 1045.309 M 666 1093 C 648.554 1094.013, 621.277 1097.918, 603.500 1101.945 C 552.500 1113.500, 503.795 1135.965, 463.286 1166.619 C 420.538 1198.968, 377.942 1250.385, 358.586 1293 C 350.809 1310.123, 339.285 1349.123, 335.392 1371.500 C 332.815 1386.309, 333.016 1411.933, 335.788 1422.144 C 341.351 1442.630, 352.754 1455.179, 371.672 1461.632 C 382.144 1465.204, 401.545 1466.043, 417.050 1463.593 C 510.281 1448.862, 660.584 1351.635, 817.235 1204.724 C 845.066 1178.623, 890.098 1133.698, 889.265 1132.865 C 886.584 1130.184, 831.057 1111.807, 809.500 1106.466 C 789.149 1101.424, 763.144 1096.820, 741.888 1094.496 C 724.555 1092.600, 685.961 1091.840, 666 1093"
        stroke="none" fill="#1d0f0f" fill-rule="evenodd" />
    <path
        d="M 989.308 66.748 C 996.353 66.920, 1007.603 66.919, 1014.308 66.747 C 1021.014 66.574, 1015.250 66.433, 1001.500 66.434 C 987.750 66.434, 982.264 66.576, 989.308 66.748 M 1420.004 167.169 C 1420.007 167.901, 1421.142 174.800, 1422.528 182.500 C 1446.829 317.519, 1450.641 471.384, 1433.937 643 C 1429.865 684.835, 1426.175 716.940, 1425.049 720.336 C 1424.284 722.644, 1424.378 723.069, 1425.553 722.618 C 1429.048 721.277, 1460.711 714.944, 1473 713.129 C 1495.056 709.870, 1508.453 708.770, 1527.748 708.631 C 1544.020 708.514, 1545.996 708.320, 1545.998 706.842 C 1545.999 705.930, 1537.632 664.080, 1527.404 613.842 C 1517.176 563.604, 1507.302 514.521, 1505.461 504.769 C 1501.180 482.098, 1496.717 453.350, 1497.235 451.794 C 1498.351 448.446, 1514.605 497.229, 1551.447 614.500 C 1567.689 666.200, 1581.423 709.513, 1581.967 710.750 C 1582.600 712.189, 1583.828 713, 1585.372 713 C 1589.231 713, 1609.941 718.511, 1616.498 721.284 L 1622.495 723.819 1634.828 705.160 C 1651.520 679.903, 1659.211 668.878, 1659.758 669.425 C 1660.010 669.677, 1653.530 683.008, 1645.358 699.050 L 1630.500 728.217 1634 730.804 C 1639.994 735.234, 1651.475 747.236, 1655.457 753.236 C 1658.524 757.856, 1659.676 758.873, 1661.382 758.463 C 1662.547 758.183, 1697.475 751.025, 1739 742.556 C 1821.367 725.758, 1858.428 719.076, 1854 721.822 C 1850.092 724.246, 1811.187 737.176, 1743.090 758.681 C 1702.066 771.637, 1668.240 782.387, 1667.923 782.571 C 1667.606 782.754, 1667.726 785.963, 1668.190 789.702 C 1669.261 798.322, 1667.735 811.609, 1664.507 821.775 C 1663.164 826.004, 1662.388 829.745, 1662.782 830.088 C 1663.177 830.431, 1672.950 837.071, 1684.500 844.843 C 1696.050 852.616, 1706.625 859.883, 1708 860.994 L 1710.500 863.012 1706.500 861.404 C 1704.300 860.520, 1692.518 854.648, 1680.317 848.355 L 1658.134 836.913 1654.120 842.823 C 1648.446 851.179, 1639.104 860.193, 1629.917 866.177 C 1623.450 870.388, 1622.126 871.683, 1622.527 873.404 C 1623.282 876.653, 1658.780 1051.601, 1662.113 1068.500 C 1664.876 1082.515, 1671.110 1119.876, 1672.374 1130 C 1672.903 1134.238, 1672.762 1134.064, 1669.946 1127 C 1662.407 1108.093, 1650.971 1073.310, 1621.866 980.759 L 1590.500 881.019 1581.881 881.009 C 1570.142 880.997, 1557.180 878.580, 1547.053 874.515 C 1542.407 872.651, 1538.299 871.315, 1537.922 871.548 C 1537.546 871.780, 1531.807 879.740, 1525.169 889.235 C 1518.531 898.731, 1511.712 908.075, 1510.015 910 L 1506.932 913.500 1510.095 907 C 1511.835 903.425, 1517.250 893.253, 1522.129 884.395 C 1527.008 875.538, 1531 868.067, 1531 867.795 C 1531 867.522, 1528.478 865.319, 1525.395 862.899 C 1522.313 860.480, 1516.658 854.450, 1512.830 849.500 C 1502.790 836.518, 1493.997 827.761, 1491.511 828.269 C 1490.405 828.495, 1471.050 832.426, 1448.500 837.005 C 1425.950 841.584, 1407.343 845.450, 1407.150 845.598 C 1406.958 845.745, 1404.620 858.159, 1401.955 873.183 C 1387.004 957.475, 1372.911 1020.250, 1352.493 1093.500 C 1335.738 1153.607, 1315.413 1217.373, 1313.271 1216.550 C 1312.466 1216.241, 1312.896 1217.712, 1314.360 1220.270 C 1322.822 1235.056, 1493.405 1562.870, 1493.447 1564.427 C 1493.494 1566.126, 1492.846 1566.332, 1488 1566.164 C 1480.870 1565.916, 1371.569 1561.195, 1358.500 1560.570 C 1353 1560.307, 1336.350 1559.563, 1321.500 1558.917 C 1304.363 1558.171, 1294.105 1557.332, 1293.418 1556.621 C 1292.823 1556.004, 1290.619 1551.225, 1288.519 1546 C 1276.998 1517.331, 1256.942 1476.574, 1240.540 1448.500 C 1231.409 1432.871, 1229.786 1430.440, 1230.597 1433.606 C 1231.120 1435.650, 1218.553 1465.365, 1198.540 1509.405 C 1126.616 1667.681, 1047.828 1804.685, 964.335 1916.662 C 958.117 1925.001, 952.461 1932.021, 951.765 1932.263 C 951.069 1932.504, 964 1933.031, 980.500 1933.434 C 1121.374 1936.868, 1266.637 1906.143, 1396 1845.549 C 1529.341 1783.093, 1645.427 1690.365, 1737.205 1573 C 1816.963 1471.007, 1876.820 1346.859, 1907.401 1220 C 1935.623 1102.929, 1941.181 984.667, 1923.944 868 C 1918.718 832.629, 1916.717 821.093, 1912.410 801.500 C 1887.569 688.502, 1842.540 581.630, 1779.478 486 C 1754.093 447.505, 1723.120 407.453, 1692.178 373.109 C 1675.846 354.981, 1636.234 315.981, 1617.500 299.585 C 1578.322 265.295, 1536.557 234.161, 1495 208.266 C 1464.173 189.058, 1419.997 164.849, 1420.004 167.169 M 339.490 340.250 L 321.500 358.500 339.750 340.510 C 356.706 323.797, 358.452 322, 357.740 322 C 357.596 322, 349.384 330.212, 339.490 340.250 M 838.206 352.741 C 841.895 352.932, 848.195 352.934, 852.206 352.743 C 856.218 352.553, 853.200 352.396, 845.500 352.395 C 837.800 352.393, 834.518 352.549, 838.206 352.741 M 1402.750 799.747 C 1408.938 799.922, 1413.992 800.388, 1413.982 800.783 C 1413.972 801.177, 1412.925 807.931, 1411.654 815.791 C 1409.952 826.324, 1409.671 829.956, 1410.586 829.605 C 1411.269 829.343, 1424.280 825.185, 1439.501 820.365 C 1470.334 810.599, 1469.679 811.134, 1456.232 806.708 C 1441.060 801.715, 1419.338 798.798, 1400.500 799.224 C 1391.724 799.422, 1391.780 799.435, 1402.750 799.747 M 1374 800.682 C 1353.783 802.770, 1324.378 808.982, 1306 815.046 C 1288.942 820.675, 1251.265 839.020, 1236.843 848.719 C 1225.092 856.621, 1211.179 867.098, 1199.500 876.839 C 1183.617 890.086, 1155.998 915.229, 1156.025 916.417 C 1156.039 917.013, 1159.526 924.080, 1163.775 932.122 L 1171.500 946.745 1184.500 934.334 C 1230.966 889.975, 1268.331 861, 1310 837.010 C 1331.920 824.391, 1367.744 807.840, 1386 801.898 L 1391.500 800.108 1384.500 800.214 C 1380.650 800.272, 1375.925 800.483, 1374 800.682 M 66.426 1000.500 C 66.427 1012.600, 66.571 1017.413, 66.747 1011.195 C 66.923 1004.977, 66.922 995.077, 66.746 989.195 C 66.569 983.313, 66.425 988.400, 66.426 1000.500 M 1016.789 1045.309 C 999.944 1063.963, 975.978 1093.561, 977.109 1094.311 C 977.324 1094.454, 984.250 1097.436, 992.500 1100.939 C 1000.750 1104.442, 1011.754 1109.426, 1016.953 1112.015 L 1026.405 1116.722 1038.883 1101.361 C 1045.746 1092.913, 1051.633 1086, 1051.967 1086 C 1052.300 1086, 1055.031 1090.991, 1058.036 1097.091 C 1061.041 1103.191, 1063.860 1108.406, 1064.300 1108.680 C 1064.739 1108.955, 1056.639 1092.501, 1046.300 1072.116 C 1035.960 1051.730, 1027.184 1035.040, 1026.799 1035.026 C 1026.413 1035.012, 1021.908 1039.639, 1016.789 1045.309 M 731.750 1050.744 C 736.288 1050.929, 743.712 1050.929, 748.250 1050.744 C 752.788 1050.559, 749.075 1050.407, 740 1050.407 C 730.925 1050.407, 727.212 1050.559, 731.750 1050.744 M 888.371 1132.705 C 888.759 1133.092, 877.696 1144.905, 863.788 1158.955 L 838.500 1184.500 864.194 1159.064 C 886.678 1136.805, 890.953 1132, 888.274 1132 C 887.940 1132, 887.984 1132.317, 888.371 1132.705 M 912.881 1158.750 C 868.913 1209.209, 800.311 1280.616, 743.500 1335.058 C 727.713 1350.187, 683.875 1389.217, 665.730 1404.299 C 592.604 1465.083, 531.026 1507.109, 473.500 1535.495 C 423.950 1559.946, 391.351 1569.923, 354 1572.071 L 340.500 1572.848 356.500 1572.458 C 384.101 1571.787, 417.133 1564.999, 459.500 1551.292 C 494.891 1539.842, 523.563 1528.093, 562.500 1509.087 C 676.499 1453.440, 783.628 1375.266, 886.033 1273 C 921.013 1238.067, 976.843 1177.390, 975.311 1175.970 C 972.431 1173.302, 925.373 1148, 923.291 1148 C 922.717 1148, 918.033 1152.838, 912.881 1158.750 M 1112 1283.500 C 1120.512 1292.025, 1127.701 1299, 1127.976 1299 C 1128.251 1299, 1121.512 1292.025, 1113 1283.500 C 1104.488 1274.975, 1097.299 1268, 1097.024 1268 C 1096.749 1268, 1103.488 1274.975, 1112 1283.500 M 240.402 1423 C 240.402 1431.525, 240.556 1435.013, 240.743 1430.750 C 240.931 1426.487, 240.931 1419.513, 240.743 1415.250 C 240.556 1410.987, 240.402 1414.475, 240.402 1423 M 338.500 1659 C 348.389 1668.900, 356.704 1677, 356.979 1677 C 357.254 1677, 349.389 1668.900, 339.500 1659 C 329.611 1649.100, 321.296 1641, 321.021 1641 C 320.746 1641, 328.611 1649.100, 338.500 1659"
        stroke="none" fill="#e6e6e6" fill-rule="evenodd" />
</svg>