<svg xmlns="http://www.w3.org/2000/svg" height="24px" viewBox="0 -960 960 960" width="24px"
    fill="#1D0F0F">
    <path
        d="M480-80q-82 0-155-31.5t-127.5-86Q143-252 111.5-325T80-480q0-83 31.5-156t86-127Q252-817 325-848.5T480-880q83 0 156 31.5T763-763q54 54 85.5 127T880-480q0 82-31.5 155T763-197.5q-54 54.5-127 86T480-80Zm0-60q142 0 241-99.5T820-480q0-142-99-241t-241-99q-141 0-240.5 99T140-480q0 141 99.5 240.5T480-140Z" />
    <path transform="scale(0.7) translate(200 -150)"
        d="M160-120v-401l-84 64-36-48 120-91v-114h60v68l260-198 440 336-36 47-84-64v401H510v-220h-60v220H160Zm0-640q0-46 32.5-78t77.5-32q21 0 35.5-15t14.5-35h60q0 45-32 77.5T270-810q-20 0-35 14.5T220-760h-60Z" />
</svg>